<?xml version="1.0" standalone="no"?>
<!DOCTYPE svg PUBLIC "-//W3C//DTD SVG 20010904//EN"
 "http://www.w3.org/TR/2001/REC-SVG-20010904/DTD/svg10.dtd">
<svg version="1.0" xmlns="http://www.w3.org/2000/svg"
 width="1280.000000pt" height="677.000000pt" viewBox="0 0 1280.000000 677.000000"
 preserveAspectRatio="xMidYMid meet">
<metadata>
Created by potrace 1.15, written by Peter Selinger 2001-2017
</metadata>
<g transform="translate(0.000000,677.000000) scale(0.100000,-0.100000)"
fill="#000000" stroke="none">
<path d="M11479 6760 c-50 -13 -178 -64 -249 -100 -49 -25 -60 -35 -60 -55 0
-91 -185 -773 -286 -1054 -86 -239 -167 -372 -378 -620 -121 -144 -441 -475
-646 -669 -439 -416 -735 -647 -1010 -786 -533 -271 -1138 -418 -1960 -477
-218 -15 -691 -16 -860 0 -352 32 -759 103 -1131 196 -463 116 -665 192 -1334
500 -609 281 -753 337 -1445 556 -299 95 -435 142 -507 176 l-33 15 -83 -71
c-175 -148 -162 -131 -222 -294 -44 -119 -53 -152 -44 -168 5 -11 30 -75 54
-143 152 -428 597 -1240 885 -1616 179 -233 557 -565 920 -807 552 -368 1321
-676 2005 -803 352 -65 595 -97 1015 -132 208 -17 1010 -18 1180 0 577 59
1207 209 1704 407 701 278 1397 730 1871 1216 287 294 477 563 645 911 157
328 239 630 240 884 0 204 -39 555 -92 834 l-32 165 0 390 c0 416 7 505 55
648 29 87 106 230 206 380 l84 128 -17 52 c-31 95 -85 198 -126 239 -59 59
-151 99 -240 103 -40 3 -89 0 -109 -5z"/>
</g>
</svg>
